<svg xmlns="http://www.w3.org/2000/svg" viewBox="0 0 512 512" width="512" height="512">
	<style>
		tspan { white-space:pre }
		.shp0 { fill: #ff7230 } 
	</style>
	<path id="Layer" fill-rule="evenodd" class="shp0" d="M504 256C504 392.97 392.97 504 256 504C119.03 504 8 392.97 8 256C8 119.03 119.03 8 256 8C392.97 8 504 119.03 504 256ZM56 256C56 366.55 145.47 456 256 456C366.55 456 456 366.53 456 256C456 145.45 366.53 56 256 56C145.45 56 56 145.47 56 256ZM336 256C336 300.18 300.18 336 256 336C211.82 336 176 300.18 176 256C176 211.82 211.82 176 256 176C300.18 176 336 211.82 336 256Z" />
</svg>